%TF.GenerationSoftware,KiCad,Pcbnew,9.0.6*%
%TF.CreationDate,2026-09-04T00:26:43+05:30*%
%TF.ProjectId,Hackpad,4861636b-7061-4642-9e6b-696361645f70,rev?*%
%TF.SameCoordinates,Original*%
%TF.FileFunction,Legend,Top*%
%TF.FilePolarity,Positive*%
%FSLAX46Y46*%
G04 Gerber Fmt 4.6, Leading zero omitted, Abs format (unit mm)*
G04 Created by KiCad (PCBNEW 9.0.6) date 2026-09-04 00:26:43*
%MOMM*%
%LPD*%
G01*
G04 APERTURE LIST*
%ADD10C,0.150000*%
%ADD11C,0.120000*%
%ADD12C,0.127000*%
%ADD13C,0.100000*%
%ADD14C,0.504000*%
G04 APERTURE END LIST*
D10*
X73533200Y-82663332D02*
X73580819Y-82520475D01*
X73580819Y-82520475D02*
X73580819Y-82282380D01*
X73580819Y-82282380D02*
X73533200Y-82187142D01*
X73533200Y-82187142D02*
X73485580Y-82139523D01*
X73485580Y-82139523D02*
X73390342Y-82091904D01*
X73390342Y-82091904D02*
X73295104Y-82091904D01*
X73295104Y-82091904D02*
X73199866Y-82139523D01*
X73199866Y-82139523D02*
X73152247Y-82187142D01*
X73152247Y-82187142D02*
X73104628Y-82282380D01*
X73104628Y-82282380D02*
X73057009Y-82472856D01*
X73057009Y-82472856D02*
X73009390Y-82568094D01*
X73009390Y-82568094D02*
X72961771Y-82615713D01*
X72961771Y-82615713D02*
X72866533Y-82663332D01*
X72866533Y-82663332D02*
X72771295Y-82663332D01*
X72771295Y-82663332D02*
X72676057Y-82615713D01*
X72676057Y-82615713D02*
X72628438Y-82568094D01*
X72628438Y-82568094D02*
X72580819Y-82472856D01*
X72580819Y-82472856D02*
X72580819Y-82234761D01*
X72580819Y-82234761D02*
X72628438Y-82091904D01*
X72580819Y-81758570D02*
X73580819Y-81520475D01*
X73580819Y-81520475D02*
X72866533Y-81329999D01*
X72866533Y-81329999D02*
X73580819Y-81139523D01*
X73580819Y-81139523D02*
X72580819Y-80901428D01*
X72580819Y-80615713D02*
X72580819Y-79996666D01*
X72580819Y-79996666D02*
X72961771Y-80329999D01*
X72961771Y-80329999D02*
X72961771Y-80187142D01*
X72961771Y-80187142D02*
X73009390Y-80091904D01*
X73009390Y-80091904D02*
X73057009Y-80044285D01*
X73057009Y-80044285D02*
X73152247Y-79996666D01*
X73152247Y-79996666D02*
X73390342Y-79996666D01*
X73390342Y-79996666D02*
X73485580Y-80044285D01*
X73485580Y-80044285D02*
X73533200Y-80091904D01*
X73533200Y-80091904D02*
X73580819Y-80187142D01*
X73580819Y-80187142D02*
X73580819Y-80472856D01*
X73580819Y-80472856D02*
X73533200Y-80568094D01*
X73533200Y-80568094D02*
X73485580Y-80615713D01*
X35383200Y-82700832D02*
X35430819Y-82557975D01*
X35430819Y-82557975D02*
X35430819Y-82319880D01*
X35430819Y-82319880D02*
X35383200Y-82224642D01*
X35383200Y-82224642D02*
X35335580Y-82177023D01*
X35335580Y-82177023D02*
X35240342Y-82129404D01*
X35240342Y-82129404D02*
X35145104Y-82129404D01*
X35145104Y-82129404D02*
X35049866Y-82177023D01*
X35049866Y-82177023D02*
X35002247Y-82224642D01*
X35002247Y-82224642D02*
X34954628Y-82319880D01*
X34954628Y-82319880D02*
X34907009Y-82510356D01*
X34907009Y-82510356D02*
X34859390Y-82605594D01*
X34859390Y-82605594D02*
X34811771Y-82653213D01*
X34811771Y-82653213D02*
X34716533Y-82700832D01*
X34716533Y-82700832D02*
X34621295Y-82700832D01*
X34621295Y-82700832D02*
X34526057Y-82653213D01*
X34526057Y-82653213D02*
X34478438Y-82605594D01*
X34478438Y-82605594D02*
X34430819Y-82510356D01*
X34430819Y-82510356D02*
X34430819Y-82272261D01*
X34430819Y-82272261D02*
X34478438Y-82129404D01*
X34430819Y-81796070D02*
X35430819Y-81557975D01*
X35430819Y-81557975D02*
X34716533Y-81367499D01*
X34716533Y-81367499D02*
X35430819Y-81177023D01*
X35430819Y-81177023D02*
X34430819Y-80938928D01*
X35430819Y-80034166D02*
X35430819Y-80605594D01*
X35430819Y-80319880D02*
X34430819Y-80319880D01*
X34430819Y-80319880D02*
X34573676Y-80415118D01*
X34573676Y-80415118D02*
X34668914Y-80510356D01*
X34668914Y-80510356D02*
X34716533Y-80605594D01*
X54433200Y-82700832D02*
X54480819Y-82557975D01*
X54480819Y-82557975D02*
X54480819Y-82319880D01*
X54480819Y-82319880D02*
X54433200Y-82224642D01*
X54433200Y-82224642D02*
X54385580Y-82177023D01*
X54385580Y-82177023D02*
X54290342Y-82129404D01*
X54290342Y-82129404D02*
X54195104Y-82129404D01*
X54195104Y-82129404D02*
X54099866Y-82177023D01*
X54099866Y-82177023D02*
X54052247Y-82224642D01*
X54052247Y-82224642D02*
X54004628Y-82319880D01*
X54004628Y-82319880D02*
X53957009Y-82510356D01*
X53957009Y-82510356D02*
X53909390Y-82605594D01*
X53909390Y-82605594D02*
X53861771Y-82653213D01*
X53861771Y-82653213D02*
X53766533Y-82700832D01*
X53766533Y-82700832D02*
X53671295Y-82700832D01*
X53671295Y-82700832D02*
X53576057Y-82653213D01*
X53576057Y-82653213D02*
X53528438Y-82605594D01*
X53528438Y-82605594D02*
X53480819Y-82510356D01*
X53480819Y-82510356D02*
X53480819Y-82272261D01*
X53480819Y-82272261D02*
X53528438Y-82129404D01*
X53480819Y-81796070D02*
X54480819Y-81557975D01*
X54480819Y-81557975D02*
X53766533Y-81367499D01*
X53766533Y-81367499D02*
X54480819Y-81177023D01*
X54480819Y-81177023D02*
X53480819Y-80938928D01*
X53576057Y-80605594D02*
X53528438Y-80557975D01*
X53528438Y-80557975D02*
X53480819Y-80462737D01*
X53480819Y-80462737D02*
X53480819Y-80224642D01*
X53480819Y-80224642D02*
X53528438Y-80129404D01*
X53528438Y-80129404D02*
X53576057Y-80081785D01*
X53576057Y-80081785D02*
X53671295Y-80034166D01*
X53671295Y-80034166D02*
X53766533Y-80034166D01*
X53766533Y-80034166D02*
X53909390Y-80081785D01*
X53909390Y-80081785D02*
X54480819Y-80653213D01*
X54480819Y-80653213D02*
X54480819Y-80034166D01*
X92633200Y-82663332D02*
X92680819Y-82520475D01*
X92680819Y-82520475D02*
X92680819Y-82282380D01*
X92680819Y-82282380D02*
X92633200Y-82187142D01*
X92633200Y-82187142D02*
X92585580Y-82139523D01*
X92585580Y-82139523D02*
X92490342Y-82091904D01*
X92490342Y-82091904D02*
X92395104Y-82091904D01*
X92395104Y-82091904D02*
X92299866Y-82139523D01*
X92299866Y-82139523D02*
X92252247Y-82187142D01*
X92252247Y-82187142D02*
X92204628Y-82282380D01*
X92204628Y-82282380D02*
X92157009Y-82472856D01*
X92157009Y-82472856D02*
X92109390Y-82568094D01*
X92109390Y-82568094D02*
X92061771Y-82615713D01*
X92061771Y-82615713D02*
X91966533Y-82663332D01*
X91966533Y-82663332D02*
X91871295Y-82663332D01*
X91871295Y-82663332D02*
X91776057Y-82615713D01*
X91776057Y-82615713D02*
X91728438Y-82568094D01*
X91728438Y-82568094D02*
X91680819Y-82472856D01*
X91680819Y-82472856D02*
X91680819Y-82234761D01*
X91680819Y-82234761D02*
X91728438Y-82091904D01*
X91680819Y-81758570D02*
X92680819Y-81520475D01*
X92680819Y-81520475D02*
X91966533Y-81329999D01*
X91966533Y-81329999D02*
X92680819Y-81139523D01*
X92680819Y-81139523D02*
X91680819Y-80901428D01*
X92014152Y-80091904D02*
X92680819Y-80091904D01*
X91633200Y-80329999D02*
X92347485Y-80568094D01*
X92347485Y-80568094D02*
X92347485Y-79949047D01*
X97054819Y-70338094D02*
X96054819Y-70338094D01*
X96054819Y-70338094D02*
X96054819Y-70099999D01*
X96054819Y-70099999D02*
X96102438Y-69957142D01*
X96102438Y-69957142D02*
X96197676Y-69861904D01*
X96197676Y-69861904D02*
X96292914Y-69814285D01*
X96292914Y-69814285D02*
X96483390Y-69766666D01*
X96483390Y-69766666D02*
X96626247Y-69766666D01*
X96626247Y-69766666D02*
X96816723Y-69814285D01*
X96816723Y-69814285D02*
X96911961Y-69861904D01*
X96911961Y-69861904D02*
X97007200Y-69957142D01*
X97007200Y-69957142D02*
X97054819Y-70099999D01*
X97054819Y-70099999D02*
X97054819Y-70338094D01*
X96150057Y-69385713D02*
X96102438Y-69338094D01*
X96102438Y-69338094D02*
X96054819Y-69242856D01*
X96054819Y-69242856D02*
X96054819Y-69004761D01*
X96054819Y-69004761D02*
X96102438Y-68909523D01*
X96102438Y-68909523D02*
X96150057Y-68861904D01*
X96150057Y-68861904D02*
X96245295Y-68814285D01*
X96245295Y-68814285D02*
X96340533Y-68814285D01*
X96340533Y-68814285D02*
X96483390Y-68861904D01*
X96483390Y-68861904D02*
X97054819Y-69433332D01*
X97054819Y-69433332D02*
X97054819Y-68814285D01*
X98887295Y-70971428D02*
X98887295Y-71428571D01*
X98887295Y-71199999D02*
X98087295Y-71199999D01*
X98087295Y-71199999D02*
X98201580Y-71276190D01*
X98201580Y-71276190D02*
X98277771Y-71352380D01*
X98277771Y-71352380D02*
X98315866Y-71428571D01*
X103504819Y-70238094D02*
X102504819Y-70238094D01*
X102504819Y-70238094D02*
X102504819Y-69999999D01*
X102504819Y-69999999D02*
X102552438Y-69857142D01*
X102552438Y-69857142D02*
X102647676Y-69761904D01*
X102647676Y-69761904D02*
X102742914Y-69714285D01*
X102742914Y-69714285D02*
X102933390Y-69666666D01*
X102933390Y-69666666D02*
X103076247Y-69666666D01*
X103076247Y-69666666D02*
X103266723Y-69714285D01*
X103266723Y-69714285D02*
X103361961Y-69761904D01*
X103361961Y-69761904D02*
X103457200Y-69857142D01*
X103457200Y-69857142D02*
X103504819Y-69999999D01*
X103504819Y-69999999D02*
X103504819Y-70238094D01*
X103504819Y-68714285D02*
X103504819Y-69285713D01*
X103504819Y-68999999D02*
X102504819Y-68999999D01*
X102504819Y-68999999D02*
X102647676Y-69095237D01*
X102647676Y-69095237D02*
X102742914Y-69190475D01*
X102742914Y-69190475D02*
X102790533Y-69285713D01*
X105287295Y-70971428D02*
X105287295Y-71428571D01*
X105287295Y-71199999D02*
X104487295Y-71199999D01*
X104487295Y-71199999D02*
X104601580Y-71276190D01*
X104601580Y-71276190D02*
X104677771Y-71352380D01*
X104677771Y-71352380D02*
X104715866Y-71428571D01*
D11*
%TO.C,SW3*%
X74015000Y-74345000D02*
X87985000Y-74345000D01*
X74015000Y-88315000D02*
X74015000Y-74345000D01*
X87985000Y-74345000D02*
X87985000Y-88315000D01*
X87985000Y-88315000D02*
X74015000Y-88315000D01*
D12*
%TO.C,U1*%
X89917500Y-94215000D02*
X89917500Y-108185000D01*
X91822500Y-92310000D02*
X108967500Y-92310000D01*
X91822500Y-110090000D02*
X108967500Y-110090000D01*
X110872500Y-96705000D02*
X111782772Y-96708728D01*
D13*
X110872500Y-108185000D02*
X110872500Y-94215000D01*
D12*
X110872500Y-108185000D02*
X110872500Y-94215000D01*
X111782500Y-105704000D02*
X110872500Y-105704000D01*
X112282500Y-97208728D02*
X112282500Y-105204000D01*
X89917500Y-94215000D02*
G75*
G02*
X91822500Y-92310000I1905001J-1D01*
G01*
X91822500Y-110090000D02*
G75*
G02*
X89917500Y-108185000I0J1905000D01*
G01*
X108967500Y-92310000D02*
G75*
G02*
X110872500Y-94215000I-1J-1905001D01*
G01*
X110872500Y-108185000D02*
G75*
G02*
X108967500Y-110090000I-1905000J0D01*
G01*
X111782772Y-96708728D02*
G75*
G02*
X112282499Y-97208728I-291J-500018D01*
G01*
X112282500Y-105204000D02*
G75*
G02*
X111782500Y-105704000I-500000J0D01*
G01*
D14*
X110003500Y-93393000D02*
G75*
G02*
X109499500Y-93393000I-252000J0D01*
G01*
X109499500Y-93393000D02*
G75*
G02*
X110003500Y-93393000I252000J0D01*
G01*
X110883500Y-92250000D02*
G75*
G02*
X110379500Y-92250000I-252000J0D01*
G01*
X110379500Y-92250000D02*
G75*
G02*
X110883500Y-92250000I252000J0D01*
G01*
D11*
%TO.C,SW1*%
X35865000Y-74382500D02*
X49835000Y-74382500D01*
X35865000Y-88352500D02*
X35865000Y-74382500D01*
X49835000Y-74382500D02*
X49835000Y-88352500D01*
X49835000Y-88352500D02*
X35865000Y-88352500D01*
%TO.C,SW2*%
X54915000Y-74382500D02*
X68885000Y-74382500D01*
X54915000Y-88352500D02*
X54915000Y-74382500D01*
X68885000Y-74382500D02*
X68885000Y-88352500D01*
X68885000Y-88352500D02*
X54915000Y-88352500D01*
%TO.C,SW4*%
X93115000Y-74345000D02*
X107085000Y-74345000D01*
X93115000Y-88315000D02*
X93115000Y-74345000D01*
X107085000Y-74345000D02*
X107085000Y-88315000D01*
X107085000Y-88315000D02*
X93115000Y-88315000D01*
%TO.C,D2*%
X97400000Y-70800000D02*
X97400000Y-65200000D01*
X97400000Y-70800000D02*
X101400000Y-70800000D01*
X100800000Y-65200000D02*
X97400000Y-65200000D01*
X100800000Y-65200000D02*
X101400000Y-65800000D01*
X101400000Y-70800000D02*
X101400000Y-65800000D01*
%TO.C,D1*%
X103800000Y-70800000D02*
X103800000Y-65200000D01*
X103800000Y-70800000D02*
X107800000Y-70800000D01*
X107200000Y-65200000D02*
X103800000Y-65200000D01*
X107200000Y-65200000D02*
X107800000Y-65800000D01*
X107800000Y-70800000D02*
X107800000Y-65800000D01*
%TD*%
M02*
