M48
; DRILL file {KiCad 9.0.6} date 2026-09-04T00:26:47+0530
; FORMAT={-:-/ absolute / metric / decimal}
; #@! TF.CreationDate,2026-09-04T00:26:47+05:30
; #@! TF.GenerationSoftware,Kicad,Pcbnew,9.0.6
; #@! TF.FileFunction,Plated,1,2,PTH
FMAT,2
METRIC
; #@! TA.AperFunction,Plated,PTH,ComponentDrill
T1C0.889
; #@! TA.AperFunction,Plated,PTH,ComponentDrill
T2C1.500
%
G90
G05
T1
X92.712Y-93.58
X92.712Y-108.82
X95.251Y-93.58
X95.251Y-108.82
X97.791Y-93.58
X97.791Y-108.82
X100.331Y-93.58
X100.331Y-108.82
X102.871Y-93.58
X102.871Y-108.82
X105.411Y-93.58
X105.411Y-108.82
X107.951Y-93.58
X107.951Y-108.82
T2
X37.77Y-78.828
X40.31Y-85.177
X56.82Y-78.828
X59.36Y-85.177
X75.92Y-78.79
X78.46Y-85.14
X95.02Y-78.79
X97.56Y-85.14
M30
