%TF.GenerationSoftware,KiCad,Pcbnew,9.0.6*%
%TF.CreationDate,2026-09-04T00:26:43+05:30*%
%TF.ProjectId,Hackpad,4861636b-7061-4642-9e6b-696361645f70,rev?*%
%TF.SameCoordinates,Original*%
%TF.FileFunction,Soldermask,Top*%
%TF.FilePolarity,Negative*%
%FSLAX46Y46*%
G04 Gerber Fmt 4.6, Leading zero omitted, Abs format (unit mm)*
G04 Created by KiCad (PCBNEW 9.0.6) date 2026-09-04 00:26:43*
%MOMM*%
%LPD*%
G01*
G04 APERTURE LIST*
G04 Aperture macros list*
%AMRoundRect*
0 Rectangle with rounded corners*
0 $1 Rounding radius*
0 $2 $3 $4 $5 $6 $7 $8 $9 X,Y pos of 4 corners*
0 Add a 4 corners polygon primitive as box body*
4,1,4,$2,$3,$4,$5,$6,$7,$8,$9,$2,$3,0*
0 Add four circle primitives for the rounded corners*
1,1,$1+$1,$2,$3*
1,1,$1+$1,$4,$5*
1,1,$1+$1,$6,$7*
1,1,$1+$1,$8,$9*
0 Add four rect primitives between the rounded corners*
20,1,$1+$1,$2,$3,$4,$5,0*
20,1,$1+$1,$4,$5,$6,$7,0*
20,1,$1+$1,$6,$7,$8,$9,0*
20,1,$1+$1,$8,$9,$2,$3,0*%
G04 Aperture macros list end*
%ADD10C,1.700000*%
%ADD11C,4.000000*%
%ADD12C,2.200000*%
%ADD13RoundRect,0.152400X0.609600X-1.063600X0.609600X1.063600X-0.609600X1.063600X-0.609600X-1.063600X0*%
%ADD14C,1.524000*%
%ADD15RoundRect,0.152400X-0.609600X1.063600X-0.609600X-1.063600X0.609600X-1.063600X0.609600X1.063600X0*%
%ADD16R,0.850000X1.600000*%
G04 APERTURE END LIST*
D10*
%TO.C,SW3*%
X81000000Y-86410000D03*
D11*
X81000000Y-81330000D03*
D10*
X81000000Y-76250000D03*
D12*
X75920000Y-78790000D03*
X78460000Y-85140000D03*
%TD*%
D13*
%TO.C,U1*%
X107951500Y-92745000D03*
D14*
X107951500Y-93580000D03*
D13*
X105411500Y-92745000D03*
D14*
X105411500Y-93580000D03*
D13*
X102871500Y-92745000D03*
D14*
X102871500Y-93580000D03*
D13*
X100331500Y-92745000D03*
D14*
X100331500Y-93580000D03*
D13*
X97791500Y-92745000D03*
D14*
X97791500Y-93580000D03*
D13*
X95251500Y-92745000D03*
D14*
X95251500Y-93580000D03*
D13*
X92711500Y-92745000D03*
D14*
X92711500Y-93580000D03*
X92711500Y-108820000D03*
D15*
X92711500Y-109655000D03*
D14*
X95251500Y-108820000D03*
D15*
X95251500Y-109655000D03*
D14*
X97791500Y-108820000D03*
D15*
X97791500Y-109655000D03*
D14*
X100331500Y-108820000D03*
D15*
X100331500Y-109655000D03*
D14*
X102871500Y-108820000D03*
D15*
X102871500Y-109655000D03*
D14*
X105411500Y-108820000D03*
D15*
X105411500Y-109655000D03*
D14*
X107951500Y-108820000D03*
D15*
X107951500Y-109655000D03*
%TD*%
D10*
%TO.C,SW1*%
X42850000Y-86447500D03*
D11*
X42850000Y-81367500D03*
D10*
X42850000Y-76287500D03*
D12*
X37770000Y-78827500D03*
X40310000Y-85177500D03*
%TD*%
D10*
%TO.C,SW2*%
X61900000Y-86447500D03*
D11*
X61900000Y-81367500D03*
D10*
X61900000Y-76287500D03*
D12*
X56820000Y-78827500D03*
X59360000Y-85177500D03*
%TD*%
D10*
%TO.C,SW4*%
X100100000Y-86410000D03*
D11*
X100100000Y-81330000D03*
D10*
X100100000Y-76250000D03*
D12*
X95020000Y-78790000D03*
X97560000Y-85140000D03*
%TD*%
D16*
%TO.C,D2*%
X98525000Y-69750000D03*
X100275000Y-69750000D03*
X100275000Y-66250000D03*
X98525000Y-66250000D03*
%TD*%
%TO.C,D1*%
X104925000Y-69750000D03*
X106675000Y-69750000D03*
X106675000Y-66250000D03*
X104925000Y-66250000D03*
%TD*%
M02*
