%TF.GenerationSoftware,KiCad,Pcbnew,9.0.6*%
%TF.CreationDate,2026-09-04T00:26:43+05:30*%
%TF.ProjectId,Hackpad,4861636b-7061-4642-9e6b-696361645f70,rev?*%
%TF.SameCoordinates,Original*%
%TF.FileFunction,Copper,L1,Top*%
%TF.FilePolarity,Positive*%
%FSLAX46Y46*%
G04 Gerber Fmt 4.6, Leading zero omitted, Abs format (unit mm)*
G04 Created by KiCad (PCBNEW 9.0.6) date 2026-09-04 00:26:43*
%MOMM*%
%LPD*%
G01*
G04 APERTURE LIST*
G04 Aperture macros list*
%AMRoundRect*
0 Rectangle with rounded corners*
0 $1 Rounding radius*
0 $2 $3 $4 $5 $6 $7 $8 $9 X,Y pos of 4 corners*
0 Add a 4 corners polygon primitive as box body*
4,1,4,$2,$3,$4,$5,$6,$7,$8,$9,$2,$3,0*
0 Add four circle primitives for the rounded corners*
1,1,$1+$1,$2,$3*
1,1,$1+$1,$4,$5*
1,1,$1+$1,$6,$7*
1,1,$1+$1,$8,$9*
0 Add four rect primitives between the rounded corners*
20,1,$1+$1,$2,$3,$4,$5,0*
20,1,$1+$1,$4,$5,$6,$7,0*
20,1,$1+$1,$6,$7,$8,$9,0*
20,1,$1+$1,$8,$9,$2,$3,0*%
G04 Aperture macros list end*
%TA.AperFunction,ComponentPad*%
%ADD10C,2.200000*%
%TD*%
%TA.AperFunction,SMDPad,CuDef*%
%ADD11RoundRect,0.152400X0.609600X-1.063600X0.609600X1.063600X-0.609600X1.063600X-0.609600X-1.063600X0*%
%TD*%
%TA.AperFunction,ComponentPad*%
%ADD12C,1.524000*%
%TD*%
%TA.AperFunction,SMDPad,CuDef*%
%ADD13RoundRect,0.152400X-0.609600X1.063600X-0.609600X-1.063600X0.609600X-1.063600X0.609600X1.063600X0*%
%TD*%
%TA.AperFunction,SMDPad,CuDef*%
%ADD14R,0.850000X1.600000*%
%TD*%
%TA.AperFunction,Conductor*%
%ADD15C,0.200000*%
%TD*%
G04 APERTURE END LIST*
D10*
%TO.P,SW3,1,1*%
%TO.N,GND*%
X75920000Y-78790000D03*
%TO.P,SW3,2,2*%
%TO.N,Net-(U1-GPIO4{slash}MISO)*%
X78460000Y-85140000D03*
%TD*%
D11*
%TO.P,U1,1,GPIO26/ADC0/A0*%
%TO.N,unconnected-(U1-GPIO26{slash}ADC0{slash}A0-Pad1)*%
X107951500Y-92745000D03*
D12*
X107951500Y-93580000D03*
D11*
%TO.P,U1,2,GPIO27/ADC1/A1*%
%TO.N,unconnected-(U1-GPIO27{slash}ADC1{slash}A1-Pad2)*%
X105411500Y-92745000D03*
D12*
X105411500Y-93580000D03*
D11*
%TO.P,U1,3,GPIO28/ADC2/A2*%
%TO.N,unconnected-(U1-GPIO28{slash}ADC2{slash}A2-Pad3)*%
X102871500Y-92745000D03*
D12*
X102871500Y-93580000D03*
D11*
%TO.P,U1,4,GPIO29/ADC3/A3*%
%TO.N,unconnected-(U1-GPIO29{slash}ADC3{slash}A3-Pad4)*%
X100331500Y-92745000D03*
D12*
X100331500Y-93580000D03*
D11*
%TO.P,U1,5,GPIO6/SDA*%
%TO.N,Net-(D1-DIN)*%
X97791500Y-92745000D03*
D12*
X97791500Y-93580000D03*
D11*
%TO.P,U1,6,GPIO7/SCL*%
%TO.N,unconnected-(U1-GPIO7{slash}SCL-Pad6)*%
X95251500Y-92745000D03*
D12*
X95251500Y-93580000D03*
D11*
%TO.P,U1,7,GPIO0/TX*%
%TO.N,unconnected-(U1-GPIO0{slash}TX-Pad7)*%
X92711500Y-92745000D03*
D12*
X92711500Y-93580000D03*
%TO.P,U1,8,GPIO1/RX*%
%TO.N,Net-(U1-GPIO1{slash}RX)*%
X92711500Y-108820000D03*
D13*
X92711500Y-109655000D03*
D12*
%TO.P,U1,9,GPIO2/SCK*%
%TO.N,Net-(U1-GPIO2{slash}SCK)*%
X95251500Y-108820000D03*
D13*
X95251500Y-109655000D03*
D12*
%TO.P,U1,10,GPIO4/MISO*%
%TO.N,Net-(U1-GPIO4{slash}MISO)*%
X97791500Y-108820000D03*
D13*
X97791500Y-109655000D03*
D12*
%TO.P,U1,11,GPIO3/MOSI*%
%TO.N,Net-(U1-GPIO3{slash}MOSI)*%
X100331500Y-108820000D03*
D13*
X100331500Y-109655000D03*
D12*
%TO.P,U1,12,3V3*%
%TO.N,unconnected-(U1-3V3-Pad12)*%
X102871500Y-108820000D03*
D13*
X102871500Y-109655000D03*
D12*
%TO.P,U1,13,GND*%
%TO.N,unconnected-(U1-GND-Pad13)*%
X105411500Y-108820000D03*
D13*
X105411500Y-109655000D03*
D12*
%TO.P,U1,14,VBUS*%
%TO.N,unconnected-(U1-VBUS-Pad14)*%
X107951500Y-108820000D03*
D13*
X107951500Y-109655000D03*
%TD*%
D10*
%TO.P,SW1,1,1*%
%TO.N,GND*%
X37770000Y-78827500D03*
%TO.P,SW1,2,2*%
%TO.N,Net-(U1-GPIO1{slash}RX)*%
X40310000Y-85177500D03*
%TD*%
%TO.P,SW2,1,1*%
%TO.N,GND*%
X56820000Y-78827500D03*
%TO.P,SW2,2,2*%
%TO.N,Net-(U1-GPIO2{slash}SCK)*%
X59360000Y-85177500D03*
%TD*%
%TO.P,SW4,1,1*%
%TO.N,GND*%
X95020000Y-78790000D03*
%TO.P,SW4,2,2*%
%TO.N,Net-(U1-GPIO3{slash}MOSI)*%
X97560000Y-85140000D03*
%TD*%
D14*
%TO.P,D2,1,DOUT*%
%TO.N,unconnected-(D2-DOUT-Pad1)*%
X98525000Y-69750000D03*
%TO.P,D2,2,VSS*%
%TO.N,GND*%
X100275000Y-69750000D03*
%TO.P,D2,3,DIN*%
%TO.N,Net-(D1-DOUT)*%
X100275000Y-66250000D03*
%TO.P,D2,4,VDD*%
%TO.N,+5V*%
X98525000Y-66250000D03*
%TD*%
%TO.P,D1,1,DOUT*%
%TO.N,Net-(D1-DOUT)*%
X104925000Y-69750000D03*
%TO.P,D1,2,VSS*%
%TO.N,GND*%
X106675000Y-69750000D03*
%TO.P,D1,3,DIN*%
%TO.N,Net-(D1-DIN)*%
X106675000Y-66250000D03*
%TO.P,D1,4,VDD*%
%TO.N,+5V*%
X104925000Y-66250000D03*
%TD*%
D15*
%TO.N,Net-(D1-DOUT)*%
X101425000Y-66250000D02*
X104925000Y-69750000D01*
X100275000Y-66250000D02*
X101425000Y-66250000D01*
%TO.N,Net-(D1-DIN)*%
X97791500Y-93580000D02*
X97791500Y-87352814D01*
X107401000Y-66976000D02*
X106675000Y-66250000D01*
X96159000Y-84559686D02*
X97037686Y-83681000D01*
X97791500Y-87352814D02*
X96159000Y-85720314D01*
X107401000Y-77353816D02*
X107401000Y-66976000D01*
X96159000Y-85720314D02*
X96159000Y-84559686D01*
X101073816Y-83681000D02*
X107401000Y-77353816D01*
X97037686Y-83681000D02*
X101073816Y-83681000D01*
%TO.N,+5V*%
X103824000Y-65149000D02*
X99626000Y-65149000D01*
X99626000Y-65149000D02*
X98525000Y-66250000D01*
X104925000Y-66250000D02*
X103824000Y-65149000D01*
%TO.N,GND*%
X100275000Y-69750000D02*
X101376000Y-70851000D01*
X94982500Y-78827500D02*
X95020000Y-78790000D01*
X105574000Y-70851000D02*
X106675000Y-69750000D01*
X101376000Y-70851000D02*
X105574000Y-70851000D01*
X95020000Y-77207000D02*
X101376000Y-70851000D01*
X37770000Y-78827500D02*
X94982500Y-78827500D01*
X95020000Y-78790000D02*
X95020000Y-77207000D01*
%TO.N,Net-(U1-GPIO1{slash}RX)*%
X40310000Y-85177500D02*
X40310000Y-85605970D01*
X63524030Y-108820000D02*
X92711500Y-108820000D01*
X40310000Y-85605970D02*
X63524030Y-108820000D01*
%TO.N,Net-(U1-GPIO2{slash}SCK)*%
X71609000Y-85177500D02*
X95251500Y-108820000D01*
X59360000Y-85177500D02*
X71609000Y-85177500D01*
%TO.N,Net-(U1-GPIO4{slash}MISO)*%
X78460000Y-85140000D02*
X78460000Y-86695634D01*
X78460000Y-86695634D02*
X97791500Y-106027134D01*
X97791500Y-106027134D02*
X97791500Y-108820000D01*
%TO.N,Net-(U1-GPIO3{slash}MOSI)*%
X97560000Y-85140000D02*
X98854500Y-86434500D01*
X98854500Y-86434500D02*
X98854500Y-107343000D01*
X98854500Y-107343000D02*
X100331500Y-108820000D01*
%TD*%
%TA.AperFunction,Conductor*%
%TO.N,GND*%
G36*
X98992941Y-64720185D02*
G01*
X99038696Y-64772989D01*
X99048640Y-64842147D01*
X99019615Y-64905703D01*
X99013539Y-64912225D01*
X99012538Y-64913225D01*
X98951199Y-64946679D01*
X98924901Y-64949500D01*
X98052129Y-64949500D01*
X98052123Y-64949501D01*
X97992516Y-64955908D01*
X97857671Y-65006202D01*
X97857664Y-65006206D01*
X97742455Y-65092452D01*
X97742452Y-65092455D01*
X97656206Y-65207664D01*
X97656202Y-65207671D01*
X97605908Y-65342517D01*
X97599501Y-65402116D01*
X97599501Y-65402123D01*
X97599500Y-65402135D01*
X97599500Y-67097870D01*
X97599501Y-67097876D01*
X97605908Y-67157483D01*
X97656202Y-67292328D01*
X97656206Y-67292335D01*
X97742452Y-67407544D01*
X97742455Y-67407547D01*
X97857664Y-67493793D01*
X97857671Y-67493797D01*
X97992517Y-67544091D01*
X97992516Y-67544091D01*
X97999444Y-67544835D01*
X98052127Y-67550500D01*
X98997872Y-67550499D01*
X99057483Y-67544091D01*
X99192331Y-67493796D01*
X99307546Y-67407546D01*
X99307548Y-67407542D01*
X99312319Y-67402773D01*
X99373642Y-67369288D01*
X99443334Y-67374272D01*
X99487681Y-67402773D01*
X99492455Y-67407547D01*
X99607664Y-67493793D01*
X99607671Y-67493797D01*
X99742517Y-67544091D01*
X99742516Y-67544091D01*
X99749444Y-67544835D01*
X99802127Y-67550500D01*
X100747872Y-67550499D01*
X100807483Y-67544091D01*
X100942331Y-67493796D01*
X101057546Y-67407546D01*
X101143796Y-67292331D01*
X101194091Y-67157483D01*
X101194455Y-67154088D01*
X101195474Y-67151630D01*
X101195874Y-67149938D01*
X101196148Y-67150002D01*
X101221191Y-67089539D01*
X101278582Y-67049689D01*
X101348407Y-67047193D01*
X101405426Y-67079661D01*
X103963181Y-69637416D01*
X103996666Y-69698739D01*
X103999500Y-69725097D01*
X103999500Y-70597870D01*
X103999501Y-70597876D01*
X104005908Y-70657483D01*
X104056202Y-70792328D01*
X104056206Y-70792335D01*
X104142452Y-70907544D01*
X104142455Y-70907547D01*
X104257664Y-70993793D01*
X104257671Y-70993797D01*
X104392517Y-71044091D01*
X104392516Y-71044091D01*
X104399444Y-71044835D01*
X104452127Y-71050500D01*
X105397872Y-71050499D01*
X105457483Y-71044091D01*
X105592331Y-70993796D01*
X105707546Y-70907546D01*
X105707548Y-70907542D01*
X105712676Y-70902416D01*
X105773999Y-70868931D01*
X105843691Y-70873915D01*
X105888038Y-70902416D01*
X105892812Y-70907190D01*
X106007906Y-70993350D01*
X106007913Y-70993354D01*
X106142620Y-71043596D01*
X106142627Y-71043598D01*
X106202155Y-71049999D01*
X106202172Y-71050000D01*
X106425000Y-71050000D01*
X106425000Y-68450000D01*
X106202155Y-68450000D01*
X106142627Y-68456401D01*
X106142620Y-68456403D01*
X106007913Y-68506645D01*
X106007906Y-68506649D01*
X105892812Y-68592809D01*
X105888038Y-68597584D01*
X105826715Y-68631069D01*
X105757023Y-68626085D01*
X105712676Y-68597584D01*
X105707544Y-68592452D01*
X105592335Y-68506206D01*
X105592328Y-68506202D01*
X105457482Y-68455908D01*
X105457483Y-68455908D01*
X105397883Y-68449501D01*
X105397881Y-68449500D01*
X105397873Y-68449500D01*
X105397865Y-68449500D01*
X104525097Y-68449500D01*
X104458058Y-68429815D01*
X104437416Y-68413181D01*
X101985416Y-65961181D01*
X101951931Y-65899858D01*
X101956915Y-65830166D01*
X101998787Y-65774233D01*
X102064251Y-65749816D01*
X102073097Y-65749500D01*
X103523903Y-65749500D01*
X103590942Y-65769185D01*
X103611584Y-65785819D01*
X103963181Y-66137416D01*
X103996666Y-66198739D01*
X103999500Y-66225097D01*
X103999500Y-67097870D01*
X103999501Y-67097876D01*
X104005908Y-67157483D01*
X104056202Y-67292328D01*
X104056206Y-67292335D01*
X104142452Y-67407544D01*
X104142455Y-67407547D01*
X104257664Y-67493793D01*
X104257671Y-67493797D01*
X104392517Y-67544091D01*
X104392516Y-67544091D01*
X104399444Y-67544835D01*
X104452127Y-67550500D01*
X105397872Y-67550499D01*
X105457483Y-67544091D01*
X105592331Y-67493796D01*
X105707546Y-67407546D01*
X105707548Y-67407542D01*
X105712319Y-67402773D01*
X105773642Y-67369288D01*
X105843334Y-67374272D01*
X105887681Y-67402773D01*
X105892455Y-67407547D01*
X106007664Y-67493793D01*
X106007671Y-67493797D01*
X106052618Y-67510561D01*
X106142517Y-67544091D01*
X106202127Y-67550500D01*
X106676500Y-67550499D01*
X106743539Y-67570183D01*
X106789294Y-67622987D01*
X106800500Y-67674499D01*
X106800500Y-77053718D01*
X106780815Y-77120757D01*
X106764181Y-77141399D01*
X102562181Y-81343399D01*
X102500858Y-81376884D01*
X102431166Y-81371900D01*
X102375233Y-81330028D01*
X102350816Y-81264564D01*
X102350500Y-81255718D01*
X102350500Y-81182500D01*
X102350499Y-81182486D01*
X102348646Y-81168415D01*
X102311993Y-80890007D01*
X102235639Y-80605048D01*
X102122743Y-80332493D01*
X102109918Y-80310280D01*
X101975238Y-80077006D01*
X101795647Y-79842959D01*
X101795641Y-79842952D01*
X101587047Y-79634358D01*
X101587040Y-79634352D01*
X101352993Y-79454761D01*
X101097510Y-79307258D01*
X101097500Y-79307254D01*
X100824961Y-79194364D01*
X100824954Y-79194362D01*
X100824952Y-79194361D01*
X100539993Y-79118007D01*
X100491113Y-79111571D01*
X100247513Y-79079500D01*
X100247506Y-79079500D01*
X99952494Y-79079500D01*
X99952486Y-79079500D01*
X99674085Y-79116153D01*
X99660007Y-79118007D01*
X99418351Y-79182758D01*
X99375048Y-79194361D01*
X99375038Y-79194364D01*
X99102499Y-79307254D01*
X99102489Y-79307258D01*
X98847006Y-79454761D01*
X98612959Y-79634352D01*
X98612952Y-79634358D01*
X98404358Y-79842952D01*
X98404352Y-79842959D01*
X98224761Y-80077006D01*
X98077258Y-80332489D01*
X98077254Y-80332499D01*
X97964364Y-80605038D01*
X97964361Y-80605048D01*
X97888008Y-80890004D01*
X97888006Y-80890015D01*
X97849500Y-81182486D01*
X97849500Y-81477513D01*
X97861261Y-81566842D01*
X97888007Y-81769993D01*
X97888008Y-81769995D01*
X97964361Y-82054951D01*
X97964364Y-82054961D01*
X98077254Y-82327500D01*
X98077258Y-82327510D01*
X98224761Y-82582993D01*
X98404352Y-82817040D01*
X98404358Y-82817047D01*
X98456130Y-82868819D01*
X98489615Y-82930142D01*
X98484631Y-82999834D01*
X98442759Y-83055767D01*
X98377295Y-83080184D01*
X98368449Y-83080500D01*
X97124356Y-83080500D01*
X97124340Y-83080499D01*
X97116744Y-83080499D01*
X96958629Y-83080499D01*
X96882265Y-83100961D01*
X96805900Y-83121423D01*
X96805895Y-83121426D01*
X96668976Y-83200475D01*
X96668968Y-83200481D01*
X95678481Y-84190968D01*
X95678477Y-84190973D01*
X95666547Y-84211639D01*
X95659600Y-84223672D01*
X95599423Y-84327901D01*
X95558499Y-84480629D01*
X95558499Y-84480631D01*
X95558499Y-84648732D01*
X95558500Y-84648745D01*
X95558500Y-85633644D01*
X95558499Y-85633662D01*
X95558499Y-85799368D01*
X95558498Y-85799368D01*
X95567567Y-85833212D01*
X95599423Y-85952099D01*
X95619892Y-85987552D01*
X95628358Y-86002214D01*
X95628359Y-86002218D01*
X95628360Y-86002218D01*
X95678479Y-86089028D01*
X95678481Y-86089031D01*
X95797349Y-86207899D01*
X95797355Y-86207904D01*
X97154681Y-87565230D01*
X97188166Y-87626553D01*
X97191000Y-87652911D01*
X97191000Y-90907969D01*
X97171315Y-90975008D01*
X97118511Y-91020763D01*
X97085035Y-91029438D01*
X97085188Y-91030274D01*
X97078947Y-91031413D01*
X96920545Y-91077434D01*
X96920542Y-91077435D01*
X96778556Y-91161405D01*
X96778547Y-91161412D01*
X96661912Y-91278047D01*
X96661908Y-91278053D01*
X96628232Y-91334996D01*
X96577162Y-91382679D01*
X96508421Y-91395182D01*
X96443831Y-91368536D01*
X96414768Y-91334996D01*
X96381092Y-91278053D01*
X96381089Y-91278050D01*
X96381087Y-91278047D01*
X96264452Y-91161412D01*
X96264443Y-91161405D01*
X96122457Y-91077435D01*
X96122454Y-91077434D01*
X95964052Y-91031413D01*
X95964046Y-91031412D01*
X95927041Y-91028500D01*
X95927034Y-91028500D01*
X94575966Y-91028500D01*
X94575958Y-91028500D01*
X94538953Y-91031412D01*
X94538947Y-91031413D01*
X94380545Y-91077434D01*
X94380542Y-91077435D01*
X94238556Y-91161405D01*
X94238547Y-91161412D01*
X94121912Y-91278047D01*
X94121908Y-91278053D01*
X94088232Y-91334996D01*
X94037162Y-91382679D01*
X93968421Y-91395182D01*
X93903831Y-91368536D01*
X93874768Y-91334996D01*
X93841092Y-91278053D01*
X93841089Y-91278050D01*
X93841087Y-91278047D01*
X93724452Y-91161412D01*
X93724443Y-91161405D01*
X93582457Y-91077435D01*
X93582454Y-91077434D01*
X93424052Y-91031413D01*
X93424046Y-91031412D01*
X93387041Y-91028500D01*
X93387034Y-91028500D01*
X92035966Y-91028500D01*
X92035958Y-91028500D01*
X91998953Y-91031412D01*
X91998947Y-91031413D01*
X91840545Y-91077434D01*
X91840542Y-91077435D01*
X91698556Y-91161405D01*
X91698547Y-91161412D01*
X91581912Y-91278047D01*
X91581905Y-91278056D01*
X91497935Y-91420042D01*
X91497934Y-91420045D01*
X91451913Y-91578447D01*
X91451912Y-91578453D01*
X91449000Y-91615458D01*
X91449000Y-93874541D01*
X91451912Y-93911546D01*
X91451913Y-93911552D01*
X91497934Y-94069954D01*
X91497935Y-94069957D01*
X91581905Y-94211943D01*
X91581906Y-94211944D01*
X91581908Y-94211947D01*
X91678108Y-94308147D01*
X91690740Y-94322938D01*
X91748519Y-94402464D01*
X91889036Y-94542981D01*
X92049806Y-94659787D01*
X92136649Y-94704035D01*
X92226867Y-94750005D01*
X92226870Y-94750006D01*
X92321366Y-94780709D01*
X92415864Y-94811413D01*
X92612139Y-94842500D01*
X92612140Y-94842500D01*
X92810860Y-94842500D01*
X92810861Y-94842500D01*
X93007136Y-94811413D01*
X93196132Y-94750005D01*
X93373194Y-94659787D01*
X93533964Y-94542981D01*
X93674481Y-94402464D01*
X93732262Y-94322933D01*
X93737539Y-94316175D01*
X93741037Y-94312000D01*
X93841092Y-94211947D01*
X93879939Y-94146259D01*
X93886462Y-94138477D01*
X93907427Y-94124509D01*
X93925837Y-94107321D01*
X93936005Y-94105471D01*
X93944610Y-94099739D01*
X93969799Y-94099324D01*
X93994579Y-94094817D01*
X94004134Y-94098759D01*
X94014470Y-94098589D01*
X94035879Y-94111854D01*
X94059168Y-94121462D01*
X94068191Y-94131875D01*
X94073863Y-94135390D01*
X94077075Y-94142128D01*
X94088232Y-94155004D01*
X94121905Y-94211943D01*
X94121908Y-94211947D01*
X94218108Y-94308147D01*
X94230740Y-94322938D01*
X94288519Y-94402464D01*
X94429036Y-94542981D01*
X94589806Y-94659787D01*
X94676649Y-94704035D01*
X94766867Y-94750005D01*
X94766870Y-94750006D01*
X94861366Y-94780709D01*
X94955864Y-94811413D01*
X95152139Y-94842500D01*
X95152140Y-94842500D01*
X95350860Y-94842500D01*
X95350861Y-94842500D01*
X95547136Y-94811413D01*
X95736132Y-94750005D01*
X95913194Y-94659787D01*
X96073964Y-94542981D01*
X96214481Y-94402464D01*
X96272262Y-94322933D01*
X96277539Y-94316175D01*
X96281037Y-94312000D01*
X96381092Y-94211947D01*
X96419939Y-94146259D01*
X96426462Y-94138477D01*
X96447427Y-94124509D01*
X96465837Y-94107321D01*
X96476005Y-94105471D01*
X96484610Y-94099739D01*
X96509799Y-94099324D01*
X96534579Y-94094817D01*
X96544134Y-94098759D01*
X96554470Y-94098589D01*
X96575879Y-94111854D01*
X96599168Y-94121462D01*
X96608191Y-94131875D01*
X96613863Y-94135390D01*
X96617075Y-94142128D01*
X96628232Y-94155004D01*
X96661905Y-94211943D01*
X96661908Y-94211947D01*
X96758108Y-94308147D01*
X96770740Y-94322938D01*
X96828519Y-94402464D01*
X96969036Y-94542981D01*
X97129806Y-94659787D01*
X97216649Y-94704035D01*
X97306867Y-94750005D01*
X97306870Y-94750006D01*
X97401366Y-94780709D01*
X97495864Y-94811413D01*
X97692139Y-94842500D01*
X97692140Y-94842500D01*
X97890860Y-94842500D01*
X97890861Y-94842500D01*
X98087136Y-94811413D01*
X98091679Y-94809937D01*
X98161520Y-94807940D01*
X98221354Y-94844019D01*
X98252183Y-94906719D01*
X98254000Y-94927867D01*
X98254000Y-105341037D01*
X98234315Y-105408076D01*
X98181511Y-105453831D01*
X98112353Y-105463775D01*
X98048797Y-105434750D01*
X98042319Y-105428718D01*
X79299352Y-86685751D01*
X79265867Y-86624428D01*
X79270851Y-86554736D01*
X79312723Y-86498803D01*
X79314148Y-86497752D01*
X79502649Y-86360798D01*
X79502647Y-86360798D01*
X79502656Y-86360793D01*
X79680793Y-86182656D01*
X79685380Y-86176341D01*
X79740708Y-86133675D01*
X79810322Y-86127693D01*
X79872118Y-86160296D01*
X79906477Y-86221134D01*
X79908174Y-86268621D01*
X79899500Y-86323389D01*
X79899500Y-86496611D01*
X79901442Y-86508870D01*
X79925495Y-86660741D01*
X79926598Y-86667701D01*
X79980127Y-86832445D01*
X80058768Y-86986788D01*
X80160586Y-87126928D01*
X80283072Y-87249414D01*
X80423212Y-87351232D01*
X80577555Y-87429873D01*
X80742299Y-87483402D01*
X80913389Y-87510500D01*
X80913390Y-87510500D01*
X81086610Y-87510500D01*
X81086611Y-87510500D01*
X81257701Y-87483402D01*
X81422445Y-87429873D01*
X81576788Y-87351232D01*
X81716928Y-87249414D01*
X81839414Y-87126928D01*
X81941232Y-86986788D01*
X82019873Y-86832445D01*
X82073402Y-86667701D01*
X82100500Y-86496611D01*
X82100500Y-86323389D01*
X82073402Y-86152299D01*
X82019873Y-85987555D01*
X81941232Y-85833212D01*
X81839414Y-85693072D01*
X81716928Y-85570586D01*
X81576788Y-85468768D01*
X81422447Y-85390128D01*
X81422446Y-85390127D01*
X81422445Y-85390127D01*
X81257701Y-85336598D01*
X81257699Y-85336597D01*
X81257698Y-85336597D01*
X81126271Y-85315781D01*
X81086611Y-85309500D01*
X80913389Y-85309500D01*
X80873728Y-85315781D01*
X80742302Y-85336597D01*
X80577552Y-85390128D01*
X80423211Y-85468768D01*
X80359875Y-85514785D01*
X80283072Y-85570586D01*
X80283070Y-85570588D01*
X80283068Y-85570589D01*
X80231139Y-85622518D01*
X80169816Y-85656002D01*
X80100124Y-85651017D01*
X80044191Y-85609146D01*
X80019775Y-85543681D01*
X80020986Y-85515438D01*
X80021088Y-85514788D01*
X80021090Y-85514785D01*
X80060500Y-85265962D01*
X80060500Y-85014038D01*
X80021090Y-84765215D01*
X79943241Y-84525621D01*
X79943239Y-84525618D01*
X79943239Y-84525616D01*
X79901747Y-84444184D01*
X79828870Y-84301155D01*
X79772576Y-84223673D01*
X79680798Y-84097350D01*
X79680794Y-84097345D01*
X79502654Y-83919205D01*
X79502649Y-83919201D01*
X79298848Y-83771132D01*
X79298847Y-83771131D01*
X79298845Y-83771130D01*
X79228747Y-83735413D01*
X79074383Y-83656760D01*
X78834785Y-83578910D01*
X78822726Y-83577000D01*
X78585962Y-83539500D01*
X78334038Y-83539500D01*
X78209626Y-83559205D01*
X78085214Y-83578910D01*
X77845616Y-83656760D01*
X77621151Y-83771132D01*
X77417350Y-83919201D01*
X77417345Y-83919205D01*
X77239205Y-84097345D01*
X77239201Y-84097350D01*
X77091132Y-84301151D01*
X76976760Y-84525616D01*
X76898910Y-84765214D01*
X76892009Y-84808784D01*
X76859500Y-85014038D01*
X76859500Y-85265962D01*
X76866396Y-85309500D01*
X76898910Y-85514785D01*
X76976760Y-85754383D01*
X77045671Y-85889626D01*
X77080659Y-85958295D01*
X77091132Y-85978848D01*
X77239201Y-86182649D01*
X77239205Y-86182654D01*
X77417345Y-86360794D01*
X77417350Y-86360798D01*
X77621153Y-86508869D01*
X77621155Y-86508870D01*
X77791793Y-86595814D01*
X77842590Y-86643788D01*
X77859499Y-86706299D01*
X77859499Y-86774688D01*
X77859498Y-86774688D01*
X77865145Y-86795762D01*
X77900423Y-86927419D01*
X77922743Y-86966078D01*
X77929358Y-86977534D01*
X77929359Y-86977538D01*
X77929360Y-86977538D01*
X77979479Y-87064348D01*
X77979481Y-87064351D01*
X78098349Y-87183219D01*
X78098355Y-87183224D01*
X97154681Y-106239550D01*
X97188166Y-106300873D01*
X97191000Y-106327231D01*
X97191000Y-107633270D01*
X97171315Y-107700309D01*
X97133633Y-107737191D01*
X97133748Y-107737349D01*
X97132676Y-107738127D01*
X97131785Y-107739000D01*
X97129809Y-107740210D01*
X96969033Y-107857021D01*
X96828518Y-107997536D01*
X96770739Y-108077061D01*
X96765460Y-108083821D01*
X96761946Y-108088013D01*
X96661908Y-108188053D01*
X96623064Y-108253733D01*
X96616538Y-108261521D01*
X96595576Y-108275485D01*
X96577162Y-108292679D01*
X96566992Y-108294528D01*
X96558391Y-108300259D01*
X96533203Y-108300674D01*
X96508421Y-108305182D01*
X96498866Y-108301240D01*
X96488531Y-108301411D01*
X96467116Y-108288142D01*
X96443831Y-108278536D01*
X96434808Y-108268123D01*
X96429138Y-108264610D01*
X96425926Y-108257873D01*
X96414768Y-108244996D01*
X96381092Y-108188053D01*
X96284890Y-108091851D01*
X96272258Y-108077060D01*
X96214484Y-107997539D01*
X96073966Y-107857021D01*
X96073964Y-107857019D01*
X95913194Y-107740213D01*
X95907263Y-107737191D01*
X95736132Y-107649994D01*
X95736129Y-107649993D01*
X95547137Y-107588587D01*
X95448998Y-107573043D01*
X95350861Y-107557500D01*
X95152139Y-107557500D01*
X95112884Y-107563717D01*
X94955860Y-107588587D01*
X94953587Y-107589133D01*
X94952697Y-107589088D01*
X94951052Y-107589349D01*
X94950997Y-107589003D01*
X94883805Y-107585635D01*
X94836972Y-107556237D01*
X72096590Y-84815855D01*
X72096588Y-84815852D01*
X71977717Y-84696981D01*
X71977709Y-84696975D01*
X71876847Y-84638743D01*
X71876845Y-84638742D01*
X71840790Y-84617925D01*
X71840789Y-84617924D01*
X71828263Y-84614567D01*
X71688057Y-84576999D01*
X71529943Y-84576999D01*
X71522347Y-84576999D01*
X71522331Y-84577000D01*
X60926300Y-84577000D01*
X60859261Y-84557315D01*
X60815815Y-84509295D01*
X60801209Y-84480629D01*
X60728870Y-84338655D01*
X60687345Y-84281500D01*
X60580798Y-84134850D01*
X60580794Y-84134845D01*
X60402654Y-83956705D01*
X60402649Y-83956701D01*
X60198848Y-83808632D01*
X60198847Y-83808631D01*
X60198845Y-83808630D01*
X60125247Y-83771130D01*
X59974383Y-83694260D01*
X59734785Y-83616410D01*
X59485962Y-83577000D01*
X59234038Y-83577000D01*
X59109626Y-83596705D01*
X58985214Y-83616410D01*
X58745616Y-83694260D01*
X58521151Y-83808632D01*
X58317350Y-83956701D01*
X58317345Y-83956705D01*
X58139205Y-84134845D01*
X58139201Y-84134850D01*
X57991132Y-84338651D01*
X57876760Y-84563116D01*
X57798910Y-84802714D01*
X57798910Y-84802715D01*
X57759500Y-85051538D01*
X57759500Y-85303462D01*
X57773227Y-85390128D01*
X57798910Y-85552285D01*
X57876760Y-85791883D01*
X57955413Y-85946247D01*
X57976459Y-85987552D01*
X57991132Y-86016348D01*
X58139201Y-86220149D01*
X58139205Y-86220154D01*
X58317345Y-86398294D01*
X58317350Y-86398298D01*
X58495117Y-86527452D01*
X58521155Y-86546370D01*
X58659021Y-86616616D01*
X58745616Y-86660739D01*
X58745618Y-86660739D01*
X58745621Y-86660741D01*
X58985215Y-86738590D01*
X59234038Y-86778000D01*
X59234039Y-86778000D01*
X59485961Y-86778000D01*
X59485962Y-86778000D01*
X59734785Y-86738590D01*
X59974379Y-86660741D01*
X60198845Y-86546370D01*
X60402656Y-86398293D01*
X60580793Y-86220156D01*
X60585380Y-86213841D01*
X60640708Y-86171175D01*
X60710322Y-86165193D01*
X60772118Y-86197796D01*
X60806477Y-86258634D01*
X60808174Y-86306121D01*
X60799500Y-86360888D01*
X60799500Y-86534110D01*
X60823840Y-86687791D01*
X60826598Y-86705201D01*
X60880127Y-86869945D01*
X60958768Y-87024288D01*
X61060586Y-87164428D01*
X61183072Y-87286914D01*
X61323212Y-87388732D01*
X61477555Y-87467373D01*
X61642299Y-87520902D01*
X61813389Y-87548000D01*
X61813390Y-87548000D01*
X61986610Y-87548000D01*
X61986611Y-87548000D01*
X62157701Y-87520902D01*
X62322445Y-87467373D01*
X62476788Y-87388732D01*
X62616928Y-87286914D01*
X62739414Y-87164428D01*
X62841232Y-87024288D01*
X62919873Y-86869945D01*
X62973402Y-86705201D01*
X63000500Y-86534111D01*
X63000500Y-86360889D01*
X62973402Y-86189799D01*
X62919873Y-86025055D01*
X62885856Y-85958293D01*
X62872961Y-85889626D01*
X62899237Y-85824885D01*
X62956344Y-85784628D01*
X62996342Y-85778000D01*
X71308903Y-85778000D01*
X71375942Y-85797685D01*
X71396584Y-85814319D01*
X92931807Y-107349542D01*
X92965292Y-107410865D01*
X92960308Y-107480557D01*
X92918436Y-107536490D01*
X92852972Y-107560907D01*
X92824732Y-107559697D01*
X92810861Y-107557500D01*
X92612139Y-107557500D01*
X92546714Y-107567862D01*
X92415862Y-107588587D01*
X92226870Y-107649993D01*
X92226867Y-107649994D01*
X92049805Y-107740213D01*
X91889033Y-107857021D01*
X91748518Y-107997536D01*
X91690739Y-108077061D01*
X91678104Y-108091854D01*
X91586780Y-108183180D01*
X91525457Y-108216666D01*
X91499098Y-108219500D01*
X63824127Y-108219500D01*
X63757088Y-108199815D01*
X63736446Y-108183181D01*
X43225472Y-87672207D01*
X43191987Y-87610884D01*
X43196971Y-87541192D01*
X43238843Y-87485259D01*
X43268272Y-87470006D01*
X43267952Y-87469234D01*
X43272435Y-87467376D01*
X43272445Y-87467373D01*
X43426788Y-87388732D01*
X43566928Y-87286914D01*
X43689414Y-87164428D01*
X43791232Y-87024288D01*
X43869873Y-86869945D01*
X43923402Y-86705201D01*
X43950500Y-86534111D01*
X43950500Y-86360889D01*
X43923402Y-86189799D01*
X43869873Y-86025055D01*
X43791232Y-85870712D01*
X43689414Y-85730572D01*
X43566928Y-85608086D01*
X43426788Y-85506268D01*
X43272445Y-85427627D01*
X43107701Y-85374098D01*
X43107699Y-85374097D01*
X43107698Y-85374097D01*
X42976271Y-85353281D01*
X42936611Y-85347000D01*
X42763389Y-85347000D01*
X42723728Y-85353281D01*
X42592302Y-85374097D01*
X42427552Y-85427628D01*
X42273211Y-85506268D01*
X42209875Y-85552285D01*
X42133072Y-85608086D01*
X42133070Y-85608088D01*
X42133068Y-85608089D01*
X42081139Y-85660018D01*
X42019816Y-85693502D01*
X41950124Y-85688517D01*
X41894191Y-85646646D01*
X41869775Y-85581181D01*
X41870986Y-85552938D01*
X41871088Y-85552288D01*
X41871090Y-85552285D01*
X41910500Y-85303462D01*
X41910500Y-85051538D01*
X41871090Y-84802715D01*
X41793241Y-84563121D01*
X41793239Y-84563118D01*
X41793239Y-84563116D01*
X41706624Y-84393126D01*
X41678870Y-84338655D01*
X41637345Y-84281500D01*
X41530798Y-84134850D01*
X41530794Y-84134845D01*
X41352654Y-83956705D01*
X41352649Y-83956701D01*
X41148848Y-83808632D01*
X41148847Y-83808631D01*
X41148845Y-83808630D01*
X41075247Y-83771130D01*
X40924383Y-83694260D01*
X40684785Y-83616410D01*
X40435962Y-83577000D01*
X40184038Y-83577000D01*
X40059626Y-83596705D01*
X39935214Y-83616410D01*
X39695616Y-83694260D01*
X39471151Y-83808632D01*
X39267350Y-83956701D01*
X39267345Y-83956705D01*
X39089205Y-84134845D01*
X39089201Y-84134850D01*
X38941132Y-84338651D01*
X38826760Y-84563116D01*
X38748910Y-84802714D01*
X38748910Y-84802715D01*
X38709500Y-85051538D01*
X38709500Y-85303462D01*
X38723227Y-85390128D01*
X38748910Y-85552285D01*
X38826760Y-85791883D01*
X38905413Y-85946247D01*
X38926459Y-85987552D01*
X38941132Y-86016348D01*
X39089201Y-86220149D01*
X39089205Y-86220154D01*
X39267345Y-86398294D01*
X39267350Y-86398298D01*
X39445117Y-86527452D01*
X39471155Y-86546370D01*
X39609021Y-86616616D01*
X39695616Y-86660739D01*
X39695618Y-86660739D01*
X39695621Y-86660741D01*
X39935215Y-86738590D01*
X40184038Y-86778000D01*
X40184039Y-86778000D01*
X40435960Y-86778000D01*
X40435962Y-86778000D01*
X40543480Y-86760970D01*
X40612771Y-86769924D01*
X40650557Y-86795762D01*
X63039169Y-109184374D01*
X63039179Y-109184385D01*
X63043509Y-109188715D01*
X63043510Y-109188716D01*
X63155314Y-109300520D01*
X63242125Y-109350639D01*
X63242127Y-109350641D01*
X63280181Y-109372611D01*
X63292245Y-109379577D01*
X63444973Y-109420500D01*
X63603087Y-109420500D01*
X91325000Y-109420500D01*
X91392039Y-109440185D01*
X91437794Y-109492989D01*
X91449000Y-109544500D01*
X91449000Y-110784541D01*
X91451912Y-110821546D01*
X91457537Y-110840906D01*
X91457336Y-110910776D01*
X91419394Y-110969445D01*
X91355755Y-110998288D01*
X91338460Y-110999500D01*
X32524500Y-110999500D01*
X32457461Y-110979815D01*
X32411706Y-110927011D01*
X32400500Y-110875500D01*
X32400500Y-81219986D01*
X40599500Y-81219986D01*
X40599500Y-81515013D01*
X40606324Y-81566842D01*
X40638007Y-81807493D01*
X40714361Y-82092451D01*
X40714364Y-82092461D01*
X40827254Y-82365000D01*
X40827258Y-82365010D01*
X40974761Y-82620493D01*
X41154352Y-82854540D01*
X41154358Y-82854547D01*
X41362952Y-83063141D01*
X41362959Y-83063147D01*
X41597006Y-83242738D01*
X41852489Y-83390241D01*
X41852490Y-83390241D01*
X41852493Y-83390243D01*
X42125048Y-83503139D01*
X42410007Y-83579493D01*
X42702494Y-83618000D01*
X42702501Y-83618000D01*
X42997499Y-83618000D01*
X42997506Y-83618000D01*
X43289993Y-83579493D01*
X43574952Y-83503139D01*
X43847507Y-83390243D01*
X44102994Y-83242738D01*
X44337042Y-83063146D01*
X44545646Y-82854542D01*
X44725238Y-82620494D01*
X44872743Y-82365007D01*
X44985639Y-82092452D01*
X45061993Y-81807493D01*
X45100500Y-81515006D01*
X45100500Y-81219994D01*
X45100499Y-81219986D01*
X59649500Y-81219986D01*
X59649500Y-81515013D01*
X59656324Y-81566842D01*
X59688007Y-81807493D01*
X59764361Y-82092451D01*
X59764364Y-82092461D01*
X59877254Y-82365000D01*
X59877258Y-82365010D01*
X60024761Y-82620493D01*
X60204352Y-82854540D01*
X60204358Y-82854547D01*
X60412952Y-83063141D01*
X60412959Y-83063147D01*
X60647006Y-83242738D01*
X60902489Y-83390241D01*
X60902490Y-83390241D01*
X60902493Y-83390243D01*
X61175048Y-83503139D01*
X61460007Y-83579493D01*
X61752494Y-83618000D01*
X61752501Y-83618000D01*
X62047499Y-83618000D01*
X62047506Y-83618000D01*
X62339993Y-83579493D01*
X62624952Y-83503139D01*
X62897507Y-83390243D01*
X63152994Y-83242738D01*
X63387042Y-83063146D01*
X63595646Y-82854542D01*
X63775238Y-82620494D01*
X63922743Y-82365007D01*
X64035639Y-82092452D01*
X64111993Y-81807493D01*
X64150500Y-81515006D01*
X64150500Y-81219994D01*
X64149536Y-81212675D01*
X64147160Y-81194619D01*
X64145563Y-81182486D01*
X78749500Y-81182486D01*
X78749500Y-81477513D01*
X78761261Y-81566842D01*
X78788007Y-81769993D01*
X78788008Y-81769995D01*
X78864361Y-82054951D01*
X78864364Y-82054961D01*
X78977254Y-82327500D01*
X78977258Y-82327510D01*
X79124761Y-82582993D01*
X79304352Y-82817040D01*
X79304358Y-82817047D01*
X79512952Y-83025641D01*
X79512959Y-83025647D01*
X79747006Y-83205238D01*
X80002489Y-83352741D01*
X80002490Y-83352741D01*
X80002493Y-83352743D01*
X80275048Y-83465639D01*
X80560007Y-83541993D01*
X80852494Y-83580500D01*
X80852501Y-83580500D01*
X81147499Y-83580500D01*
X81147506Y-83580500D01*
X81439993Y-83541993D01*
X81724952Y-83465639D01*
X81997507Y-83352743D01*
X82252994Y-83205238D01*
X82487042Y-83025646D01*
X82695646Y-82817042D01*
X82875238Y-82582994D01*
X83022743Y-82327507D01*
X83135639Y-82054952D01*
X83211993Y-81769993D01*
X83250500Y-81477506D01*
X83250500Y-81182494D01*
X83211993Y-80890007D01*
X83135639Y-80605048D01*
X83022743Y-80332493D01*
X83009918Y-80310280D01*
X82887931Y-80098991D01*
X82887930Y-80098990D01*
X82879420Y-80084250D01*
X82875238Y-80077006D01*
X82695646Y-79842958D01*
X82695641Y-79842952D01*
X82487047Y-79634358D01*
X82487040Y-79634352D01*
X82252993Y-79454761D01*
X81997510Y-79307258D01*
X81997500Y-79307254D01*
X81724961Y-79194364D01*
X81724954Y-79194362D01*
X81724952Y-79194361D01*
X81439993Y-79118007D01*
X81391113Y-79111571D01*
X81147513Y-79079500D01*
X81147506Y-79079500D01*
X80852494Y-79079500D01*
X80852486Y-79079500D01*
X80574085Y-79116153D01*
X80560007Y-79118007D01*
X80318351Y-79182758D01*
X80275048Y-79194361D01*
X80275038Y-79194364D01*
X80002499Y-79307254D01*
X80002489Y-79307258D01*
X79747006Y-79454761D01*
X79512959Y-79634352D01*
X79512952Y-79634358D01*
X79304358Y-79842952D01*
X79304352Y-79842959D01*
X79124761Y-80077006D01*
X78977258Y-80332489D01*
X78977254Y-80332499D01*
X78864364Y-80605038D01*
X78864361Y-80605048D01*
X78788008Y-80890004D01*
X78788006Y-80890015D01*
X78749500Y-81182486D01*
X64145563Y-81182486D01*
X64132963Y-81086792D01*
X64111993Y-80927507D01*
X64035639Y-80642548D01*
X63922743Y-80369993D01*
X63901092Y-80332493D01*
X63775239Y-80114508D01*
X63775238Y-80114506D01*
X63595646Y-79880458D01*
X63595641Y-79880452D01*
X63387047Y-79671858D01*
X63387040Y-79671852D01*
X63152993Y-79492261D01*
X62897510Y-79344758D01*
X62897500Y-79344754D01*
X62624961Y-79231864D01*
X62624954Y-79231862D01*
X62624952Y-79231861D01*
X62339993Y-79155507D01*
X62291113Y-79149071D01*
X62047513Y-79117000D01*
X62047506Y-79117000D01*
X61752494Y-79117000D01*
X61752486Y-79117000D01*
X61474085Y-79153653D01*
X61460007Y-79155507D01*
X61315001Y-79194361D01*
X61175048Y-79231861D01*
X61175038Y-79231864D01*
X60902499Y-79344754D01*
X60902489Y-79344758D01*
X60647006Y-79492261D01*
X60412959Y-79671852D01*
X60412952Y-79671858D01*
X60204358Y-79880452D01*
X60204352Y-79880459D01*
X60024761Y-80114506D01*
X59877258Y-80369989D01*
X59877254Y-80369999D01*
X59764364Y-80642538D01*
X59764361Y-80642548D01*
X59688008Y-80927504D01*
X59688006Y-80927515D01*
X59649500Y-81219986D01*
X45100499Y-81219986D01*
X45061993Y-80927507D01*
X44985639Y-80642548D01*
X44872743Y-80369993D01*
X44851092Y-80332493D01*
X44737931Y-80136491D01*
X44737930Y-80136490D01*
X44729420Y-80121750D01*
X44725238Y-80114506D01*
X44545646Y-79880458D01*
X44545641Y-79880452D01*
X44337047Y-79671858D01*
X44337040Y-79671852D01*
X44102993Y-79492261D01*
X43847510Y-79344758D01*
X43847500Y-79344754D01*
X43574961Y-79231864D01*
X43574954Y-79231862D01*
X43574952Y-79231861D01*
X43289993Y-79155507D01*
X43241113Y-79149071D01*
X42997513Y-79117000D01*
X42997506Y-79117000D01*
X42702494Y-79117000D01*
X42702486Y-79117000D01*
X42424085Y-79153653D01*
X42410007Y-79155507D01*
X42265001Y-79194361D01*
X42125048Y-79231861D01*
X42125038Y-79231864D01*
X41852499Y-79344754D01*
X41852489Y-79344758D01*
X41597006Y-79492261D01*
X41362959Y-79671852D01*
X41362952Y-79671858D01*
X41154358Y-79880452D01*
X41154352Y-79880459D01*
X40974761Y-80114506D01*
X40827258Y-80369989D01*
X40827254Y-80369999D01*
X40714364Y-80642538D01*
X40714361Y-80642548D01*
X40638008Y-80927504D01*
X40638006Y-80927515D01*
X40599500Y-81219986D01*
X32400500Y-81219986D01*
X32400500Y-78701571D01*
X36170000Y-78701571D01*
X36170000Y-78953428D01*
X36209397Y-79202169D01*
X36287219Y-79441684D01*
X36401557Y-79666083D01*
X36475748Y-79768197D01*
X36475748Y-79768198D01*
X37092421Y-79151524D01*
X37105359Y-79182758D01*
X37187437Y-79305597D01*
X37291903Y-79410063D01*
X37414742Y-79492141D01*
X37445974Y-79505077D01*
X36829300Y-80121750D01*
X36931416Y-80195942D01*
X37155815Y-80310280D01*
X37395330Y-80388102D01*
X37644072Y-80427500D01*
X37895928Y-80427500D01*
X38144669Y-80388102D01*
X38384184Y-80310280D01*
X38608575Y-80195946D01*
X38608581Y-80195942D01*
X38710697Y-80121750D01*
X38710698Y-80121750D01*
X38094025Y-79505078D01*
X38125258Y-79492141D01*
X38248097Y-79410063D01*
X38352563Y-79305597D01*
X38434641Y-79182758D01*
X38447577Y-79151525D01*
X39064250Y-79768198D01*
X39064250Y-79768197D01*
X39138442Y-79666081D01*
X39138446Y-79666075D01*
X39252780Y-79441684D01*
X39330602Y-79202169D01*
X39370000Y-78953428D01*
X39370000Y-78701571D01*
X55220000Y-78701571D01*
X55220000Y-78953428D01*
X55259397Y-79202169D01*
X55337219Y-79441684D01*
X55451557Y-79666083D01*
X55525748Y-79768197D01*
X55525748Y-79768198D01*
X56142421Y-79151524D01*
X56155359Y-79182758D01*
X56237437Y-79305597D01*
X56341903Y-79410063D01*
X56464742Y-79492141D01*
X56495974Y-79505077D01*
X55879300Y-80121750D01*
X55981416Y-80195942D01*
X56205815Y-80310280D01*
X56445330Y-80388102D01*
X56694072Y-80427500D01*
X56945928Y-80427500D01*
X57194669Y-80388102D01*
X57434184Y-80310280D01*
X57658575Y-80195946D01*
X57658581Y-80195942D01*
X57760697Y-80121750D01*
X57760698Y-80121750D01*
X57144025Y-79505078D01*
X57175258Y-79492141D01*
X57298097Y-79410063D01*
X57402563Y-79305597D01*
X57484641Y-79182758D01*
X57497577Y-79151525D01*
X58114250Y-79768198D01*
X58114250Y-79768197D01*
X58188442Y-79666081D01*
X58188446Y-79666075D01*
X58302780Y-79441684D01*
X58380602Y-79202169D01*
X58420000Y-78953428D01*
X58420000Y-78701571D01*
X58416362Y-78678603D01*
X58414060Y-78664071D01*
X74320000Y-78664071D01*
X74320000Y-78915928D01*
X74359397Y-79164669D01*
X74437219Y-79404184D01*
X74551557Y-79628583D01*
X74625748Y-79730697D01*
X74625748Y-79730698D01*
X75242421Y-79114024D01*
X75255359Y-79145258D01*
X75337437Y-79268097D01*
X75441903Y-79372563D01*
X75564742Y-79454641D01*
X75595974Y-79467577D01*
X74979300Y-80084250D01*
X75081416Y-80158442D01*
X75305815Y-80272780D01*
X75545330Y-80350602D01*
X75794072Y-80390000D01*
X76045928Y-80390000D01*
X76294669Y-80350602D01*
X76534184Y-80272780D01*
X76758575Y-80158446D01*
X76758581Y-80158442D01*
X76860697Y-80084250D01*
X76860698Y-80084250D01*
X76244025Y-79467578D01*
X76275258Y-79454641D01*
X76398097Y-79372563D01*
X76502563Y-79268097D01*
X76584641Y-79145258D01*
X76597577Y-79114025D01*
X77214250Y-79730698D01*
X77214250Y-79730697D01*
X77288442Y-79628581D01*
X77288446Y-79628575D01*
X77402780Y-79404184D01*
X77480602Y-79164669D01*
X77520000Y-78915928D01*
X77520000Y-78664071D01*
X93420000Y-78664071D01*
X93420000Y-78915928D01*
X93459397Y-79164669D01*
X93537219Y-79404184D01*
X93651557Y-79628583D01*
X93725748Y-79730697D01*
X93725748Y-79730698D01*
X94342421Y-79114024D01*
X94355359Y-79145258D01*
X94437437Y-79268097D01*
X94541903Y-79372563D01*
X94664742Y-79454641D01*
X94695974Y-79467577D01*
X94079300Y-80084250D01*
X94181416Y-80158442D01*
X94405815Y-80272780D01*
X94645330Y-80350602D01*
X94894072Y-80390000D01*
X95145928Y-80390000D01*
X95394669Y-80350602D01*
X95634184Y-80272780D01*
X95858575Y-80158446D01*
X95858581Y-80158442D01*
X95960697Y-80084250D01*
X95960698Y-80084250D01*
X95344025Y-79467578D01*
X95375258Y-79454641D01*
X95498097Y-79372563D01*
X95602563Y-79268097D01*
X95684641Y-79145258D01*
X95697577Y-79114025D01*
X96314250Y-79730698D01*
X96314250Y-79730697D01*
X96388442Y-79628581D01*
X96388446Y-79628575D01*
X96502780Y-79404184D01*
X96580602Y-79164669D01*
X96620000Y-78915928D01*
X96620000Y-78664071D01*
X96580602Y-78415330D01*
X96502780Y-78175815D01*
X96388442Y-77951416D01*
X96314250Y-77849301D01*
X96314250Y-77849300D01*
X95697577Y-78465973D01*
X95684641Y-78434742D01*
X95602563Y-78311903D01*
X95498097Y-78207437D01*
X95375258Y-78125359D01*
X95344024Y-78112421D01*
X95960698Y-77495748D01*
X95858583Y-77421557D01*
X95634184Y-77307219D01*
X95394669Y-77229397D01*
X95145928Y-77190000D01*
X94894072Y-77190000D01*
X94645330Y-77229397D01*
X94405815Y-77307219D01*
X94181413Y-77421559D01*
X94079301Y-77495747D01*
X94079300Y-77495748D01*
X94695974Y-78112421D01*
X94664742Y-78125359D01*
X94541903Y-78207437D01*
X94437437Y-78311903D01*
X94355359Y-78434742D01*
X94342421Y-78465974D01*
X93725748Y-77849300D01*
X93725747Y-77849301D01*
X93651559Y-77951413D01*
X93537219Y-78175815D01*
X93459397Y-78415330D01*
X93420000Y-78664071D01*
X77520000Y-78664071D01*
X77480602Y-78415330D01*
X77402780Y-78175815D01*
X77288442Y-77951416D01*
X77214250Y-77849301D01*
X77214250Y-77849300D01*
X76597577Y-78465973D01*
X76584641Y-78434742D01*
X76502563Y-78311903D01*
X76398097Y-78207437D01*
X76275258Y-78125359D01*
X76244024Y-78112421D01*
X76860698Y-77495748D01*
X76758583Y-77421557D01*
X76534184Y-77307219D01*
X76294669Y-77229397D01*
X76045928Y-77190000D01*
X75794072Y-77190000D01*
X75545330Y-77229397D01*
X75305815Y-77307219D01*
X75081413Y-77421559D01*
X74979301Y-77495747D01*
X74979300Y-77495748D01*
X75595974Y-78112421D01*
X75564742Y-78125359D01*
X75441903Y-78207437D01*
X75337437Y-78311903D01*
X75255359Y-78434742D01*
X75242421Y-78465974D01*
X74625748Y-77849300D01*
X74625747Y-77849301D01*
X74551559Y-77951413D01*
X74437219Y-78175815D01*
X74359397Y-78415330D01*
X74320000Y-78664071D01*
X58414060Y-78664071D01*
X58380602Y-78452830D01*
X58302780Y-78213315D01*
X58188442Y-77988916D01*
X58114250Y-77886801D01*
X58114250Y-77886800D01*
X57497577Y-78503473D01*
X57484641Y-78472242D01*
X57402563Y-78349403D01*
X57298097Y-78244937D01*
X57175258Y-78162859D01*
X57144024Y-78149921D01*
X57760698Y-77533248D01*
X57658583Y-77459057D01*
X57434184Y-77344719D01*
X57194669Y-77266897D01*
X56945928Y-77227500D01*
X56694072Y-77227500D01*
X56445330Y-77266897D01*
X56205815Y-77344719D01*
X55981413Y-77459059D01*
X55879301Y-77533247D01*
X55879300Y-77533248D01*
X56495974Y-78149921D01*
X56464742Y-78162859D01*
X56341903Y-78244937D01*
X56237437Y-78349403D01*
X56155359Y-78472242D01*
X56142421Y-78503474D01*
X55525748Y-77886800D01*
X55525747Y-77886801D01*
X55451559Y-77988913D01*
X55337219Y-78213315D01*
X55259397Y-78452830D01*
X55220000Y-78701571D01*
X39370000Y-78701571D01*
X39330602Y-78452830D01*
X39252780Y-78213315D01*
X39138442Y-77988916D01*
X39064250Y-77886801D01*
X39064250Y-77886800D01*
X38447577Y-78503473D01*
X38434641Y-78472242D01*
X38352563Y-78349403D01*
X38248097Y-78244937D01*
X38125258Y-78162859D01*
X38094024Y-78149921D01*
X38710698Y-77533248D01*
X38608583Y-77459057D01*
X38384184Y-77344719D01*
X38144669Y-77266897D01*
X37895928Y-77227500D01*
X37644072Y-77227500D01*
X37395330Y-77266897D01*
X37155815Y-77344719D01*
X36931413Y-77459059D01*
X36829301Y-77533247D01*
X36829300Y-77533248D01*
X37445974Y-78149921D01*
X37414742Y-78162859D01*
X37291903Y-78244937D01*
X37187437Y-78349403D01*
X37105359Y-78472242D01*
X37092421Y-78503474D01*
X36475748Y-77886800D01*
X36475747Y-77886801D01*
X36401559Y-77988913D01*
X36287219Y-78213315D01*
X36209397Y-78452830D01*
X36170000Y-78701571D01*
X32400500Y-78701571D01*
X32400500Y-76200889D01*
X41749500Y-76200889D01*
X41749500Y-76374110D01*
X41770658Y-76507701D01*
X41776598Y-76545201D01*
X41830127Y-76709945D01*
X41908768Y-76864288D01*
X42010586Y-77004428D01*
X42133072Y-77126914D01*
X42273212Y-77228732D01*
X42427555Y-77307373D01*
X42592299Y-77360902D01*
X42763389Y-77388000D01*
X42763390Y-77388000D01*
X42936610Y-77388000D01*
X42936611Y-77388000D01*
X43107701Y-77360902D01*
X43272445Y-77307373D01*
X43426788Y-77228732D01*
X43566928Y-77126914D01*
X43689414Y-77004428D01*
X43791232Y-76864288D01*
X43869873Y-76709945D01*
X43923402Y-76545201D01*
X43950500Y-76374111D01*
X43950500Y-76200889D01*
X60799500Y-76200889D01*
X60799500Y-76374110D01*
X60820658Y-76507701D01*
X60826598Y-76545201D01*
X60880127Y-76709945D01*
X60958768Y-76864288D01*
X61060586Y-77004428D01*
X61183072Y-77126914D01*
X61323212Y-77228732D01*
X61477555Y-77307373D01*
X61642299Y-77360902D01*
X61813389Y-77388000D01*
X61813390Y-77388000D01*
X61986610Y-77388000D01*
X61986611Y-77388000D01*
X62157701Y-77360902D01*
X62322445Y-77307373D01*
X62476788Y-77228732D01*
X62616928Y-77126914D01*
X62739414Y-77004428D01*
X62841232Y-76864288D01*
X62919873Y-76709945D01*
X62973402Y-76545201D01*
X63000500Y-76374111D01*
X63000500Y-76200889D01*
X62994561Y-76163389D01*
X79899500Y-76163389D01*
X79899500Y-76336611D01*
X79926598Y-76507701D01*
X79980127Y-76672445D01*
X80058768Y-76826788D01*
X80160586Y-76966928D01*
X80283072Y-77089414D01*
X80423212Y-77191232D01*
X80577555Y-77269873D01*
X80742299Y-77323402D01*
X80913389Y-77350500D01*
X80913390Y-77350500D01*
X81086610Y-77350500D01*
X81086611Y-77350500D01*
X81257701Y-77323402D01*
X81422445Y-77269873D01*
X81576788Y-77191232D01*
X81716928Y-77089414D01*
X81839414Y-76966928D01*
X81941232Y-76826788D01*
X82019873Y-76672445D01*
X82073402Y-76507701D01*
X82100500Y-76336611D01*
X82100500Y-76163389D01*
X98999500Y-76163389D01*
X98999500Y-76336611D01*
X99026598Y-76507701D01*
X99080127Y-76672445D01*
X99158768Y-76826788D01*
X99260586Y-76966928D01*
X99383072Y-77089414D01*
X99523212Y-77191232D01*
X99677555Y-77269873D01*
X99842299Y-77323402D01*
X100013389Y-77350500D01*
X100013390Y-77350500D01*
X100186610Y-77350500D01*
X100186611Y-77350500D01*
X100357701Y-77323402D01*
X100522445Y-77269873D01*
X100676788Y-77191232D01*
X100816928Y-77089414D01*
X100939414Y-76966928D01*
X101041232Y-76826788D01*
X101119873Y-76672445D01*
X101173402Y-76507701D01*
X101200500Y-76336611D01*
X101200500Y-76163389D01*
X101173402Y-75992299D01*
X101119873Y-75827555D01*
X101041232Y-75673212D01*
X100939414Y-75533072D01*
X100816928Y-75410586D01*
X100676788Y-75308768D01*
X100522447Y-75230128D01*
X100522446Y-75230127D01*
X100522445Y-75230127D01*
X100357701Y-75176598D01*
X100357699Y-75176597D01*
X100357698Y-75176597D01*
X100226271Y-75155781D01*
X100186611Y-75149500D01*
X100013389Y-75149500D01*
X99973728Y-75155781D01*
X99842302Y-75176597D01*
X99677552Y-75230128D01*
X99523211Y-75308768D01*
X99443256Y-75366859D01*
X99383072Y-75410586D01*
X99383070Y-75410588D01*
X99383069Y-75410588D01*
X99260588Y-75533069D01*
X99260588Y-75533070D01*
X99260586Y-75533072D01*
X99233343Y-75570569D01*
X99158768Y-75673211D01*
X99080128Y-75827552D01*
X99026597Y-75992302D01*
X99020658Y-76029801D01*
X98999500Y-76163389D01*
X82100500Y-76163389D01*
X82073402Y-75992299D01*
X82019873Y-75827555D01*
X81941232Y-75673212D01*
X81839414Y-75533072D01*
X81716928Y-75410586D01*
X81576788Y-75308768D01*
X81422447Y-75230128D01*
X81422446Y-75230127D01*
X81422445Y-75230127D01*
X81257701Y-75176598D01*
X81257699Y-75176597D01*
X81257698Y-75176597D01*
X81126271Y-75155781D01*
X81086611Y-75149500D01*
X80913389Y-75149500D01*
X80873728Y-75155781D01*
X80742302Y-75176597D01*
X80577552Y-75230128D01*
X80423211Y-75308768D01*
X80343256Y-75366859D01*
X80283072Y-75410586D01*
X80283070Y-75410588D01*
X80283069Y-75410588D01*
X80160588Y-75533069D01*
X80160588Y-75533070D01*
X80160586Y-75533072D01*
X80133343Y-75570569D01*
X80058768Y-75673211D01*
X79980128Y-75827552D01*
X79926597Y-75992302D01*
X79920658Y-76029801D01*
X79899500Y-76163389D01*
X62994561Y-76163389D01*
X62973402Y-76029799D01*
X62919873Y-75865055D01*
X62841232Y-75710712D01*
X62739414Y-75570572D01*
X62616928Y-75448086D01*
X62476788Y-75346268D01*
X62322445Y-75267627D01*
X62157701Y-75214098D01*
X62157699Y-75214097D01*
X62157698Y-75214097D01*
X62026271Y-75193281D01*
X61986611Y-75187000D01*
X61813389Y-75187000D01*
X61773728Y-75193281D01*
X61642302Y-75214097D01*
X61477552Y-75267628D01*
X61323211Y-75346268D01*
X61243256Y-75404359D01*
X61183072Y-75448086D01*
X61183070Y-75448088D01*
X61183069Y-75448088D01*
X61060588Y-75570569D01*
X61060588Y-75570570D01*
X61060586Y-75570572D01*
X61016859Y-75630756D01*
X60958768Y-75710711D01*
X60880128Y-75865052D01*
X60826597Y-76029802D01*
X60799500Y-76200889D01*
X43950500Y-76200889D01*
X43923402Y-76029799D01*
X43869873Y-75865055D01*
X43791232Y-75710712D01*
X43689414Y-75570572D01*
X43566928Y-75448086D01*
X43426788Y-75346268D01*
X43272445Y-75267627D01*
X43107701Y-75214098D01*
X43107699Y-75214097D01*
X43107698Y-75214097D01*
X42976271Y-75193281D01*
X42936611Y-75187000D01*
X42763389Y-75187000D01*
X42723728Y-75193281D01*
X42592302Y-75214097D01*
X42427552Y-75267628D01*
X42273211Y-75346268D01*
X42193256Y-75404359D01*
X42133072Y-75448086D01*
X42133070Y-75448088D01*
X42133069Y-75448088D01*
X42010588Y-75570569D01*
X42010588Y-75570570D01*
X42010586Y-75570572D01*
X41966859Y-75630756D01*
X41908768Y-75710711D01*
X41830128Y-75865052D01*
X41776597Y-76029802D01*
X41749500Y-76200889D01*
X32400500Y-76200889D01*
X32400500Y-68902135D01*
X97599500Y-68902135D01*
X97599500Y-70597870D01*
X97599501Y-70597876D01*
X97605908Y-70657483D01*
X97656202Y-70792328D01*
X97656206Y-70792335D01*
X97742452Y-70907544D01*
X97742455Y-70907547D01*
X97857664Y-70993793D01*
X97857671Y-70993797D01*
X97992517Y-71044091D01*
X97992516Y-71044091D01*
X97999444Y-71044835D01*
X98052127Y-71050500D01*
X98997872Y-71050499D01*
X99057483Y-71044091D01*
X99192331Y-70993796D01*
X99307546Y-70907546D01*
X99307548Y-70907542D01*
X99312676Y-70902416D01*
X99373999Y-70868931D01*
X99443691Y-70873915D01*
X99488038Y-70902416D01*
X99492812Y-70907190D01*
X99607906Y-70993350D01*
X99607913Y-70993354D01*
X99742620Y-71043596D01*
X99742627Y-71043598D01*
X99802155Y-71049999D01*
X99802172Y-71050000D01*
X100025000Y-71050000D01*
X100525000Y-71050000D01*
X100747828Y-71050000D01*
X100747844Y-71049999D01*
X100807372Y-71043598D01*
X100807379Y-71043596D01*
X100942086Y-70993354D01*
X100942093Y-70993350D01*
X101057187Y-70907190D01*
X101057190Y-70907187D01*
X101143350Y-70792093D01*
X101143354Y-70792086D01*
X101193596Y-70657379D01*
X101193598Y-70657372D01*
X101199999Y-70597844D01*
X101200000Y-70597827D01*
X101200000Y-70000000D01*
X100525000Y-70000000D01*
X100525000Y-71050000D01*
X100025000Y-71050000D01*
X100025000Y-69500000D01*
X100525000Y-69500000D01*
X101200000Y-69500000D01*
X101200000Y-68902172D01*
X101199999Y-68902155D01*
X101193598Y-68842627D01*
X101193596Y-68842620D01*
X101143354Y-68707913D01*
X101143350Y-68707906D01*
X101057190Y-68592812D01*
X101057187Y-68592809D01*
X100942093Y-68506649D01*
X100942086Y-68506645D01*
X100807379Y-68456403D01*
X100807372Y-68456401D01*
X100747844Y-68450000D01*
X100525000Y-68450000D01*
X100525000Y-69500000D01*
X100025000Y-69500000D01*
X100025000Y-68450000D01*
X99802155Y-68450000D01*
X99742627Y-68456401D01*
X99742620Y-68456403D01*
X99607913Y-68506645D01*
X99607906Y-68506649D01*
X99492812Y-68592809D01*
X99488038Y-68597584D01*
X99426715Y-68631069D01*
X99357023Y-68626085D01*
X99312676Y-68597584D01*
X99307544Y-68592452D01*
X99192335Y-68506206D01*
X99192328Y-68506202D01*
X99057482Y-68455908D01*
X99057483Y-68455908D01*
X98997883Y-68449501D01*
X98997881Y-68449500D01*
X98997873Y-68449500D01*
X98997864Y-68449500D01*
X98052129Y-68449500D01*
X98052123Y-68449501D01*
X97992516Y-68455908D01*
X97857671Y-68506202D01*
X97857664Y-68506206D01*
X97742455Y-68592452D01*
X97742452Y-68592455D01*
X97656206Y-68707664D01*
X97656202Y-68707671D01*
X97605908Y-68842517D01*
X97599501Y-68902116D01*
X97599500Y-68902135D01*
X32400500Y-68902135D01*
X32400500Y-64824500D01*
X32420185Y-64757461D01*
X32472989Y-64711706D01*
X32524500Y-64700500D01*
X98925902Y-64700500D01*
X98992941Y-64720185D01*
G37*
%TD.AperFunction*%
%TD*%
M02*
